<svg width="161" height="139" viewBox="0 0 161 139" fill="none" xmlns="http://www.w3.org/2000/svg">
<path d="M54.3566 11.7434H37.8481V63.4005H54.3566V11.7434Z" fill="#F5F5F5"/>
<path d="M54.3568 11.7434H46.1025V63.2589H54.3568V11.7434Z" fill="#EBEBEB"/>
<path d="M45.5632 6.66902H39.7336V11.74H45.5632V6.66902Z" fill="#F5F5F5"/>
<path d="M45.5628 6.66902H44.1729V11.74H45.5628V6.66902Z" fill="#EBEBEB"/>
<path d="M36.4717 11.7434V11.4467H54.8413V11.7434" fill="#E0E0E0"/>
<path d="M42.5027 13.9552H41.106V16.8649H42.5027V13.9552Z" fill="#FAFAFA"/>
<path d="M46.1024 18.0045C46.1024 18.0349 44.2548 18.0619 41.9736 18.0619C39.6923 18.0619 37.8481 18.0349 37.8481 18.0045C37.8481 17.9742 39.6957 17.9506 41.9736 17.9506C44.2514 17.9506 46.1024 17.9742 46.1024 18.0045Z" fill="#E0E0E0"/>
<path d="M50.8289 13.9552H49.4321V16.8649H50.8289V13.9552Z" fill="#E0E0E0"/>
<path d="M54.4283 18.0045C54.4283 18.0349 52.5807 18.0619 50.3029 18.0619C48.025 18.0619 46.1741 18.0349 46.1741 18.0045C46.1741 17.9742 48.0216 17.9506 50.3029 17.9506C52.5842 17.9506 54.4283 17.9742 54.4283 18.0045Z" fill="#E0E0E0"/>
<path d="M50.8289 19.7308H49.4321V22.6406H50.8289V19.7308Z" fill="#E0E0E0"/>
<path d="M54.4283 23.7802C54.4283 23.8105 52.5807 23.8375 50.3029 23.8375C48.025 23.8375 46.1741 23.8105 46.1741 23.7802C46.1741 23.7498 48.0216 23.7262 50.3029 23.7262C52.5842 23.7262 54.4283 23.7498 54.4283 23.7802Z" fill="#E0E0E0"/>
<path d="M50.8289 25.6784H49.4321V28.5882H50.8289V25.6784Z" fill="#E0E0E0"/>
<path d="M54.4283 29.7311C54.4283 29.7615 52.5807 29.7851 50.3029 29.7851C48.025 29.7851 46.1741 29.7615 46.1741 29.7311C46.1741 29.7008 48.0216 29.6772 50.3029 29.6772C52.5842 29.6772 54.4283 29.7008 54.4283 29.7311Z" fill="#E0E0E0"/>
<path d="M50.8289 31.6294H49.4321V34.5391H50.8289V31.6294Z" fill="#E0E0E0"/>
<path d="M54.4283 35.6821C54.4283 35.7125 52.5807 35.7361 50.3029 35.7361C48.025 35.7361 46.1741 35.7125 46.1741 35.6821C46.1741 35.6518 48.0216 35.6248 50.3029 35.6248C52.5842 35.6248 54.4283 35.6518 54.4283 35.6821Z" fill="#E0E0E0"/>
<path d="M50.8289 37.4118H49.4321V40.3215H50.8289V37.4118Z" fill="#E0E0E0"/>
<path d="M54.4283 41.4645C54.4283 41.4949 52.5807 41.5218 50.3029 41.5218C48.025 41.5218 46.1741 41.4949 46.1741 41.4645C46.1741 41.4342 48.0216 41.4106 50.3029 41.4106C52.5842 41.4106 54.4283 41.4308 54.4283 41.4645Z" fill="#E0E0E0"/>
<path d="M50.8289 43.2144H49.4321V46.1241H50.8289V43.2144Z" fill="#E0E0E0"/>
<path d="M50.8289 49.0946H49.4321V52.0043H50.8289V49.0946Z" fill="#E0E0E0"/>
<path d="M54.4283 47.2638C54.4283 47.2941 52.5807 47.3211 50.3029 47.3211C48.025 47.3211 46.1741 47.2941 46.1741 47.2638C46.1741 47.2334 48.0216 47.2098 50.3029 47.2098C52.5842 47.2098 54.4283 47.2334 54.4283 47.2638Z" fill="#E0E0E0"/>
<path d="M42.5027 19.8185H41.106V22.7282H42.5027V19.8185Z" fill="#FAFAFA"/>
<path d="M46.1026 23.8678C46.1026 23.8982 44.2551 23.9252 41.9738 23.9252C39.6925 23.9252 37.8416 23.8982 37.8416 23.8678C37.8416 23.8375 39.6891 23.8139 41.967 23.8139C44.2448 23.8139 46.1026 23.8375 46.1026 23.8678Z" fill="#E0E0E0"/>
<path d="M42.5027 25.6818H41.106V28.5915H42.5027V25.6818Z" fill="#FAFAFA"/>
<path d="M46.1026 29.7345C46.1026 29.7649 44.2551 29.7885 41.9738 29.7885C39.6925 29.7885 37.8416 29.7649 37.8416 29.7345C37.8416 29.7042 39.6891 29.6772 41.967 29.6772C44.2448 29.6772 46.1026 29.7042 46.1026 29.7345Z" fill="#E0E0E0"/>
<path d="M42.5027 31.5451H41.106V34.4548H42.5027V31.5451Z" fill="#FAFAFA"/>
<path d="M46.1026 35.5978C46.1026 35.6282 44.2551 35.6518 41.9738 35.6518C39.6925 35.6518 37.8416 35.6282 37.8416 35.5978C37.8416 35.5675 39.6891 35.5405 41.967 35.5405C44.2448 35.5405 46.1026 35.5675 46.1026 35.5978Z" fill="#E0E0E0"/>
<path d="M42.5027 37.4118H41.106V40.3215H42.5027V37.4118Z" fill="#FAFAFA"/>
<path d="M46.1026 41.4645C46.1026 41.4949 44.2551 41.5218 41.9738 41.5218C39.6925 41.5218 37.8416 41.4915 37.8416 41.4645C37.8416 41.4375 39.6891 41.4106 41.967 41.4106C44.2448 41.4106 46.1026 41.4308 46.1026 41.4645Z" fill="#E0E0E0"/>
<path d="M42.5027 43.2751H41.106V46.1848H42.5027V43.2751Z" fill="#FAFAFA"/>
<path d="M46.1024 47.3245C46.1024 47.3548 44.2548 47.3818 41.9736 47.3818C39.6923 47.3818 37.8481 47.3548 37.8481 47.3245C37.8481 47.2941 39.6957 47.2705 41.9736 47.2705C44.2514 47.2705 46.1024 47.2941 46.1024 47.3245Z" fill="#E0E0E0"/>
<path d="M42.5027 49.1384H41.106V52.0481H42.5027V49.1384Z" fill="#FAFAFA"/>
<path d="M114.817 22.6945H98.3083V74.3516H114.817V22.6945Z" fill="#F5F5F5"/>
<path d="M114.82 22.6945H106.566V74.21H114.82V22.6945Z" fill="#EBEBEB"/>
<path d="M106.027 17.6236H100.197V22.6945H106.027V17.6236Z" fill="#F5F5F5"/>
<path d="M106.027 17.6236H104.637V22.6945H106.027V17.6236Z" fill="#EBEBEB"/>
<path d="M96.9355 22.6945V22.3978H115.302V22.6945" fill="#E0E0E0"/>
<path d="M102.967 24.9063H101.57V27.816H102.967V24.9063Z" fill="#FAFAFA"/>
<path d="M106.566 28.959C106.566 28.9894 104.718 29.013 102.437 29.013C100.156 29.013 98.3083 28.9894 98.3083 28.959C98.3083 28.9287 100.159 28.9017 102.437 28.9017C104.715 28.9017 106.566 28.9287 106.566 28.959Z" fill="#E0E0E0"/>
<path d="M111.293 24.9063H109.896V27.816H111.293V24.9063Z" fill="#E0E0E0"/>
<path d="M114.892 28.959C114.892 28.9894 113.045 29.013 110.763 29.013C108.482 29.013 106.638 28.9894 106.638 28.959C106.638 28.9287 108.485 28.9017 110.763 28.9017C113.041 28.9017 114.892 28.9287 114.892 28.959Z" fill="#E0E0E0"/>
<path d="M111.293 30.682H109.896V33.5917H111.293V30.682Z" fill="#E0E0E0"/>
<path d="M114.892 34.7212C114.892 34.7515 113.045 34.7751 110.763 34.7751C108.482 34.7751 106.638 34.7515 106.638 34.7212C106.638 34.6909 108.485 34.6639 110.763 34.6639C113.041 34.6639 114.892 34.7212 114.892 34.7212Z" fill="#E0E0E0"/>
<path d="M111.293 36.6329H109.896V39.5427H111.293V36.6329Z" fill="#E0E0E0"/>
<path d="M114.892 40.6856C114.892 40.716 113.045 40.7396 110.763 40.7396C108.482 40.7396 106.638 40.716 106.638 40.6856C106.638 40.6553 108.485 40.6283 110.763 40.6283C113.041 40.6283 114.892 40.6553 114.892 40.6856Z" fill="#E0E0E0"/>
<path d="M111.293 42.5839H109.896V45.4936H111.293V42.5839Z" fill="#E0E0E0"/>
<path d="M114.892 46.6333C114.892 46.667 113.045 46.6906 110.763 46.6906C108.482 46.6906 106.638 46.667 106.638 46.6333C106.638 46.5995 108.485 46.5793 110.763 46.5793C113.041 46.5793 114.892 46.6029 114.892 46.6333Z" fill="#E0E0E0"/>
<path d="M111.293 48.3629H109.896V51.2727H111.293V48.3629Z" fill="#E0E0E0"/>
<path d="M114.892 52.4157C114.892 52.446 113.045 52.4696 110.763 52.4696C108.482 52.4696 106.638 52.446 106.638 52.4157C106.638 52.3853 108.485 52.3583 110.763 52.3583C113.041 52.3583 114.892 52.3853 114.892 52.4157Z" fill="#E0E0E0"/>
<path d="M111.293 54.1655H109.896V57.0753H111.293V54.1655Z" fill="#E0E0E0"/>
<path d="M111.293 60.0457H109.896V62.9555H111.293V60.0457Z" fill="#E0E0E0"/>
<path d="M114.892 58.2183C114.892 58.2486 113.045 58.2722 110.763 58.2722C108.482 58.2722 106.638 58.2486 106.638 58.2183C106.638 58.1879 108.485 58.1643 110.763 58.1643C113.041 58.1643 114.892 58.1879 114.892 58.2183Z" fill="#E0E0E0"/>
<path d="M102.967 30.7696H101.57V33.6794H102.967V30.7696Z" fill="#FAFAFA"/>
<path d="M106.566 34.8223C106.566 34.8527 104.718 34.8763 102.437 34.8763C100.156 34.8763 98.3083 34.8527 98.3083 34.8223C98.3083 34.792 100.159 34.7684 102.437 34.7684C104.715 34.7684 106.566 34.792 106.566 34.8223Z" fill="#E0E0E0"/>
<path d="M102.967 36.6363H101.57V39.546H102.967V36.6363Z" fill="#FAFAFA"/>
<path d="M106.566 40.6857C106.566 40.716 104.718 40.743 102.437 40.743C100.156 40.743 98.3083 40.716 98.3083 40.6857C98.3083 40.6553 100.159 40.6317 102.437 40.6317C104.715 40.6317 106.566 40.6553 106.566 40.6857Z" fill="#E0E0E0"/>
<path d="M102.967 42.4996H101.57V45.4093H102.967V42.4996Z" fill="#FAFAFA"/>
<path d="M106.566 46.549C106.566 46.5827 104.718 46.6063 102.437 46.6063C100.156 46.6063 98.3083 46.5827 98.3083 46.549C98.3083 46.5153 100.159 46.495 102.437 46.495C104.715 46.495 106.566 46.522 106.566 46.549Z" fill="#E0E0E0"/>
<path d="M102.967 48.3629H101.57V51.2727H102.967V48.3629Z" fill="#FAFAFA"/>
<path d="M106.566 52.4157C106.566 52.446 104.718 52.4696 102.437 52.4696C100.156 52.4696 98.3083 52.446 98.3083 52.4157C98.3083 52.3853 100.159 52.3583 102.437 52.3583C104.715 52.3583 106.566 52.3853 106.566 52.4157Z" fill="#E0E0E0"/>
<path d="M102.967 54.2296H101.57V57.1393H102.967V54.2296Z" fill="#FAFAFA"/>
<path d="M106.566 58.2789C106.566 58.3093 104.718 58.3329 102.437 58.3329C100.156 58.3329 98.3083 58.3093 98.3083 58.2789C98.3083 58.2486 100.159 58.225 102.437 58.225C104.715 58.225 106.566 58.2486 106.566 58.2789Z" fill="#E0E0E0"/>
<path d="M102.967 60.0929H101.57V63.0026H102.967V60.0929Z" fill="#FAFAFA"/>
<path d="M135.434 42.739H108.7V77.548H135.434V42.739Z" fill="#EBEBEB"/>
<path d="M135.43 42.739H122.897V77.548H135.43V42.739Z" fill="#E0E0E0"/>
<path d="M116.709 47.4526H114.305V53.2181H116.709V47.4526Z" fill="#F5F5F5"/>
<path d="M116.709 70.0157H114.305V75.7812H116.709V70.0157Z" fill="#F5F5F5"/>
<path d="M122.897 55.4805C122.897 55.5446 119.721 55.5951 115.8 55.5951C111.88 55.5951 108.7 55.5446 108.7 55.4805C108.7 55.4164 111.876 55.3625 115.8 55.3625C119.724 55.3625 122.897 55.4131 122.897 55.4805Z" fill="#F5F5F5"/>
<path d="M116.709 58.8184H114.305V64.584H116.709V58.8184Z" fill="#F5F5F5"/>
<path d="M122.897 66.8463C122.897 66.9104 119.721 66.9644 115.8 66.9644C111.88 66.9644 108.7 66.9104 108.7 66.8463C108.7 66.7823 111.876 66.7283 115.8 66.7283C119.724 66.7283 122.897 66.7823 122.897 66.8463Z" fill="#F5F5F5"/>
<path d="M127.965 47.4526H125.561V53.2181H127.965V47.4526Z" fill="#F5F5F5"/>
<path d="M133.18 47.4526H130.776V53.2181H133.18V47.4526Z" fill="#F5F5F5"/>
<path d="M127.965 58.3902H125.561V64.1558H127.965V58.3902Z" fill="#F5F5F5"/>
<path d="M133.18 58.3902H130.776V64.1558H133.18V58.3902Z" fill="#F5F5F5"/>
<path d="M127.965 69.3312H125.561V75.0968H127.965V69.3312Z" fill="#F5F5F5"/>
<path d="M133.18 69.3312H130.776V75.0968H133.18V69.3312Z" fill="#F5F5F5"/>
<path d="M137.442 41.5252H106.689V42.7795H137.442V41.5252Z" fill="#E0E0E0"/>
<path d="M135.618 42.9008C135.618 42.9649 129.645 43.0155 122.276 43.0155C114.906 43.0155 108.929 42.9649 108.929 42.9008C108.929 42.8368 114.906 42.7828 122.276 42.7828C129.645 42.7828 135.618 42.8334 135.618 42.9008Z" fill="#EBEBEB"/>
<path d="M48.2332 78.2425H23.9384L23.8325 40.335H48.1273L48.2332 78.2425Z" fill="#EBEBEB"/>
<path d="M48.1274 40.335H35.98V78.2425H48.1274V40.335Z" fill="#E0E0E0"/>
<path d="M35.1844 32.8735H26.6057V40.335H35.1844V32.8735Z" fill="#EBEBEB"/>
<path d="M35.1845 32.8735H33.1389V40.335H35.1845V32.8735Z" fill="#E0E0E0"/>
<path d="M48.8379 39.9001H21.8076V40.335H48.8379V39.9001Z" fill="#E0E0E0"/>
<path d="M30.6832 43.592H28.6273V47.874H30.6832V43.592Z" fill="white"/>
<path d="M35.98 49.5565C35.98 49.6003 33.248 49.6374 29.9046 49.6374C26.5613 49.6374 23.8395 49.597 23.8395 49.5565C23.8395 49.516 26.5715 49.4756 29.9115 49.4756C33.2514 49.4756 35.98 49.5059 35.98 49.5565Z" fill="#E0E0E0"/>
<path d="M42.9365 43.592H40.8806V47.874H42.9365V43.592Z" fill="#F5F5F5"/>
<path d="M48.2333 49.5565C48.2333 49.6003 45.5013 49.6374 42.1579 49.6374C38.8146 49.6374 36.0859 49.6003 36.0859 49.5565C36.0859 49.5127 38.818 49.4756 42.1579 49.4756C45.4979 49.4756 48.2333 49.5059 48.2333 49.5565Z" fill="#EBEBEB"/>
<path d="M42.9365 52.092H40.8806V56.374H42.9365V52.092Z" fill="#F5F5F5"/>
<path d="M48.2333 58.0531C48.2333 58.0969 45.5013 58.134 42.1579 58.134C38.8146 58.134 36.0859 58.0969 36.0859 58.0531C36.0859 58.0092 38.818 57.9688 42.1579 57.9688C45.4979 57.9688 48.2333 58.0059 48.2333 58.0531Z" fill="#EBEBEB"/>
<path d="M42.9365 60.8482H40.8806V65.1302H42.9365V60.8482Z" fill="#F5F5F5"/>
<path d="M48.2333 66.8092C48.2333 66.8531 45.5013 66.8902 42.1579 66.8902C38.8146 66.8902 36.0859 66.8531 36.0859 66.8092C36.0859 66.7654 38.818 66.7249 42.1579 66.7249C45.4979 66.7249 48.2333 66.7519 48.2333 66.8092Z" fill="#EBEBEB"/>
<path d="M42.9365 69.601H40.8806V73.883H42.9365V69.601Z" fill="#F5F5F5"/>
<path d="M48.2333 75.5654C48.2333 75.6093 45.5013 75.6463 42.1579 75.6463C38.8146 75.6463 36.0859 75.6093 36.0859 75.5654C36.0859 75.5216 38.818 75.4811 42.1579 75.4811C45.4979 75.4811 48.2333 75.5182 48.2333 75.5654Z" fill="#EBEBEB"/>
<path d="M30.6832 52.2201H28.6273V56.5021H30.6832V52.2201Z" fill="white"/>
<path d="M35.98 58.1812C35.98 58.2284 33.248 58.2621 29.9046 58.2621C26.5613 58.2621 23.8395 58.2284 23.8395 58.1812C23.8395 58.134 26.5715 58.1003 29.9115 58.1003C33.2514 58.1003 35.98 58.1374 35.98 58.1812Z" fill="#E0E0E0"/>
<path d="M30.6832 60.8482H28.6273V65.1302H30.6832V60.8482Z" fill="white"/>
<path d="M35.98 66.8093C35.98 66.8565 33.248 66.8935 29.9046 66.8935C26.5613 66.8935 23.8395 66.8565 23.8395 66.8093C23.8395 66.7621 26.5715 66.7283 29.9115 66.7283C33.2514 66.7283 35.98 66.7519 35.98 66.8093Z" fill="#E0E0E0"/>
<path d="M30.6832 69.4796H28.6273V73.7616H30.6832V69.4796Z" fill="white"/>
<path d="M35.98 75.4407C35.98 75.4845 33.248 75.5216 29.9046 75.5216C26.5613 75.5216 23.8395 75.4845 23.8395 75.4407C23.8395 75.3969 26.5715 75.3598 29.9115 75.3598C33.2514 75.3598 35.98 75.3935 35.98 75.4407Z" fill="#E0E0E0"/>
<path d="M144.446 32.6746C144.576 31.7508 143.258 30.9888 142.267 30.9146C141.794 30.9333 141.32 30.8937 140.857 30.7966C139.89 30.4594 139.491 29.2254 138.559 28.8343C137.852 28.5376 137.039 28.8006 136.352 29.1411C135.666 29.4816 134.986 29.9098 134.225 29.957C133.542 30.0009 132.835 29.7547 132.254 30.0784C131.821 30.3178 131.592 30.8101 131.192 31.0899C130.776 31.3419 130.294 31.4707 129.806 31.4608C129.318 31.4474 128.833 31.5252 128.375 31.6901C128.147 31.7768 127.954 31.9341 127.825 32.1384C127.696 32.3427 127.637 32.5829 127.658 32.8229L144.446 32.6746Z" fill="#F5F5F5"/>
<path d="M103.346 6.3993C103.547 4.9596 101.485 3.77278 99.9308 3.64803C99.1932 3.59071 98.4248 3.70197 97.7281 3.46259C96.2118 2.93998 95.6039 1.00465 94.1252 0.387636C93.0187 -0.0709094 91.7347 0.337061 90.6726 0.869783C89.6105 1.4025 88.5416 2.07346 87.3429 2.15101C86.3184 2.21507 85.1675 1.83408 84.2693 2.33645C83.5863 2.71071 83.2448 3.48619 82.6096 3.94136C81.9744 4.39653 81.1958 4.48083 80.4376 4.52129C79.6795 4.56175 78.8906 4.57186 78.1973 4.88205C77.5041 5.19225 76.9338 5.92052 77.0772 6.65554L103.346 6.3993Z" fill="#EBEBEB"/>
<path d="M33.1287 26.3595C33.2892 25.2098 31.6465 24.2623 30.3966 24.1645C29.8092 24.1173 29.1979 24.2084 28.6378 24.0162C27.4289 23.5981 26.9303 22.0573 25.7692 21.565C24.8847 21.1975 23.8704 21.5245 23.0166 21.9494C22.1629 22.3742 21.3091 22.9103 20.3597 22.9609C19.5298 23.0114 18.6283 22.708 17.9009 23.1092C17.3579 23.4059 17.0744 24.0229 16.5758 24.3871C16.0569 24.705 15.4549 24.8656 14.8444 24.849C14.236 24.8357 13.6304 24.934 13.0583 25.1389C12.5085 25.3885 12.0508 25.965 12.167 26.5517L33.1287 26.3595Z" fill="#F5F5F5"/>
<path d="M21.0499 51.7177C19.7231 51.7493 18.4302 52.1377 17.3104 52.841C16.1906 53.5443 15.2864 54.5359 14.6951 55.7089C14.1038 56.882 13.8479 58.1921 13.9549 59.4982C14.0619 60.8042 14.5278 62.0567 15.3024 63.1207L15.3707 63.2184L20.5377 70.1539C20.6431 70.2952 20.7814 70.4094 20.9409 70.4869C21.1004 70.5644 21.2764 70.603 21.4541 70.5994C21.6318 70.5957 21.8061 70.55 21.9621 70.466C22.1182 70.3821 22.2516 70.2623 22.3511 70.1169L27.0195 63.2623C27.9006 61.9338 28.5084 60.5414 28.5084 58.9027C28.5064 57.9446 28.3108 56.9965 27.933 56.114C27.5551 55.2315 27.0028 54.4322 26.3082 53.7631C25.6136 53.094 24.7907 52.5684 23.8878 52.2172C22.9849 51.866 22.0201 51.6962 21.0499 51.7177ZM21.2241 64.1558C20.1393 64.1558 19.0789 63.8382 18.177 63.2432C17.2751 62.6482 16.5721 61.8025 16.157 60.8131C15.7419 59.8236 15.6333 58.7349 15.8449 57.6845C16.0565 56.6341 16.5789 55.6693 17.3459 54.912C18.1129 54.1547 19.0902 53.639 20.1541 53.4301C21.218 53.2211 22.3208 53.3284 23.323 53.7382C24.3251 54.148 25.1817 54.8421 25.7844 55.7325C26.387 56.623 26.7087 57.6699 26.7087 58.7409C26.7087 60.177 26.1309 61.5543 25.1023 62.5698C24.0737 63.5853 22.6787 64.1558 21.2241 64.1558Z" fill="#8BD650"/>
<g opacity="0.3">
<path d="M21.0499 51.7177C19.7231 51.7493 18.4302 52.1377 17.3104 52.841C16.1906 53.5443 15.2864 54.5359 14.6951 55.7089C14.1038 56.882 13.8479 58.1921 13.9549 59.4982C14.0619 60.8042 14.5278 62.0567 15.3024 63.1207L15.3707 63.2184L20.5377 70.1539C20.6431 70.2952 20.7814 70.4094 20.9409 70.4869C21.1004 70.5644 21.2764 70.603 21.4541 70.5994C21.6318 70.5957 21.8061 70.55 21.9621 70.466C22.1182 70.3821 22.2516 70.2623 22.3511 70.1169L27.0195 63.2623C27.9006 61.9338 28.5084 60.5414 28.5084 58.9027C28.5064 57.9446 28.3108 56.9965 27.933 56.114C27.5551 55.2315 27.0028 54.4322 26.3082 53.7631C25.6136 53.094 24.7907 52.5684 23.8878 52.2172C22.9849 51.866 22.0201 51.6962 21.0499 51.7177ZM21.2241 64.1558C20.1393 64.1558 19.0789 63.8382 18.177 63.2432C17.2751 62.6482 16.5721 61.8025 16.157 60.8131C15.7419 59.8236 15.6333 58.7349 15.8449 57.6845C16.0565 56.6341 16.5789 55.6693 17.3459 54.912C18.1129 54.1547 19.0902 53.639 20.1541 53.4301C21.218 53.2211 22.3208 53.3284 23.323 53.7382C24.3251 54.148 25.1817 54.8421 25.7844 55.7325C26.387 56.623 26.7087 57.6699 26.7087 58.7409C26.7087 60.177 26.1309 61.5543 25.1023 62.5698C24.0737 63.5853 22.6787 64.1558 21.2241 64.1558Z" fill="black"/>
</g>
<path d="M20.6193 51.7177C18.7478 51.7671 16.9666 52.5226 15.6421 53.829C14.3176 55.1354 13.5506 56.8932 13.4989 58.7409C13.4538 60.3105 13.9339 61.851 14.8649 63.124L14.9366 63.2218L20.1002 70.1573C20.205 70.3015 20.3437 70.4184 20.5044 70.498C20.6651 70.5775 20.843 70.6174 21.0227 70.6141C21.2024 70.6107 21.3787 70.5644 21.5362 70.4789C21.6938 70.3935 21.828 70.2716 21.9273 70.1236L26.5957 63.269C27.4802 61.9406 28.0846 60.5481 28.0846 58.9095C28.0835 57.9502 27.8884 57.0008 27.5105 56.1171C27.1327 55.2333 26.5798 54.433 25.8844 53.763C25.189 53.0931 24.3651 52.5671 23.4609 52.2159C22.5568 51.8646 21.5907 51.6953 20.6193 51.7177ZM20.7901 63.1814C19.9689 63.1807 19.1663 62.9397 18.4839 62.4888C17.8014 62.0378 17.2697 61.3973 16.9559 60.6481C16.6421 59.8988 16.5603 59.0746 16.721 58.2795C16.8816 57.4844 17.2774 56.7542 17.8583 56.1811C18.4392 55.6081 19.1791 55.218 19.9846 55.06C20.79 54.9021 21.6248 54.9835 22.3834 55.2939C23.1421 55.6043 23.7904 56.1298 24.2466 56.804C24.7027 57.4781 24.9462 58.2707 24.9462 59.0814C24.9457 59.6198 24.8379 60.1529 24.6288 60.6501C24.4197 61.1474 24.1134 61.5991 23.7275 61.9795C23.3415 62.3599 22.8835 62.6616 22.3795 62.8672C21.8755 63.0728 21.3354 63.1784 20.7901 63.178V63.1814Z" fill="#8BD650"/>
<path d="M135.465 44.8901C134.452 44.9121 133.465 45.2066 132.61 45.742C131.755 46.2773 131.064 47.033 130.612 47.9276C130.16 48.8223 129.964 49.8218 130.045 50.8183C130.126 51.8148 130.482 52.7705 131.073 53.5822L131.127 53.6564L135.065 58.9398C135.145 59.0448 135.25 59.1296 135.37 59.1871C135.49 59.2446 135.622 59.2732 135.755 59.2705C135.888 59.2679 136.019 59.2341 136.137 59.1719C136.254 59.1098 136.355 59.021 136.431 58.9128L139.99 53.6901C140.698 52.7209 141.094 51.5637 141.127 50.3691C141.125 49.6406 140.977 48.9198 140.69 48.2485C140.404 47.5773 139.985 46.969 139.458 46.4591C138.931 45.9492 138.306 45.5479 137.621 45.2786C136.935 45.0092 136.202 44.8772 135.465 44.8901ZM135.598 54.3712C134.772 54.3712 133.964 54.1295 133.277 53.6766C132.59 53.2238 132.054 52.58 131.737 51.8267C131.42 51.0734 131.337 50.2443 131.497 49.4441C131.657 48.644 132.054 47.9086 132.637 47.3309C133.22 46.7532 133.964 46.3591 134.774 46.1984C135.584 46.0376 136.424 46.1174 137.188 46.4277C137.952 46.738 138.606 47.2648 139.067 47.9417C139.528 48.6186 139.775 49.4152 139.778 50.2308C139.78 50.7739 139.673 51.312 139.464 51.8143C139.254 52.3165 138.947 52.7731 138.558 53.1577C138.17 53.5424 137.709 53.8475 137.201 54.0558C136.693 54.264 136.148 54.3712 135.598 54.3712Z" fill="#8BD650"/>
<g opacity="0.3">
<path d="M135.465 44.8901C134.452 44.9121 133.465 45.2066 132.61 45.742C131.755 46.2773 131.064 47.033 130.612 47.9276C130.16 48.8223 129.964 49.8218 130.045 50.8183C130.126 51.8148 130.482 52.7705 131.073 53.5822L131.127 53.6564L135.065 58.9398C135.145 59.0448 135.25 59.1296 135.37 59.1871C135.49 59.2446 135.622 59.2732 135.755 59.2705C135.888 59.2679 136.019 59.2341 136.137 59.1719C136.254 59.1098 136.355 59.021 136.431 58.9128L139.99 53.6901C140.698 52.7209 141.094 51.5637 141.127 50.3691C141.125 49.6406 140.977 48.9198 140.69 48.2485C140.404 47.5773 139.985 46.969 139.458 46.4591C138.931 45.9492 138.306 45.5479 137.621 45.2786C136.935 45.0092 136.202 44.8772 135.465 44.8901ZM135.598 54.3712C134.772 54.3712 133.964 54.1295 133.277 53.6766C132.59 53.2238 132.054 52.58 131.737 51.8267C131.42 51.0734 131.337 50.2443 131.497 49.4441C131.657 48.644 132.054 47.9086 132.637 47.3309C133.22 46.7532 133.964 46.3591 134.774 46.1984C135.584 46.0376 136.424 46.1174 137.188 46.4277C137.952 46.738 138.606 47.2648 139.067 47.9417C139.528 48.6186 139.775 49.4152 139.778 50.2308C139.78 50.7739 139.673 51.312 139.464 51.8143C139.254 52.3165 138.947 52.7731 138.558 53.1577C138.17 53.5424 137.709 53.8475 137.201 54.0558C136.693 54.264 136.148 54.3712 135.598 54.3712Z" fill="black"/>
</g>
<path d="M135.137 44.8901C134.125 44.9139 133.14 45.2097 132.286 45.7458C131.432 46.2818 130.743 47.0377 130.292 47.932C129.841 48.8263 129.646 49.8251 129.728 50.8208C129.809 51.8164 130.165 52.7712 130.755 53.5823L130.807 53.6564L134.741 58.9398C134.821 59.0476 134.927 59.1347 135.048 59.1939C135.17 59.253 135.304 59.2825 135.439 59.2799C135.575 59.2773 135.708 59.2425 135.827 59.1787C135.946 59.1148 136.048 59.0236 136.124 58.9128L139.682 53.6901C140.389 52.7206 140.784 51.5634 140.816 50.3691C140.815 49.639 140.666 48.9166 140.379 48.244C140.091 47.5714 139.671 46.9622 139.142 46.452C138.613 45.9418 137.987 45.5408 137.299 45.2727C136.611 45.0045 135.876 44.8744 135.137 44.8901ZM135.267 53.6261C134.641 53.6261 134.028 53.4428 133.508 53.0993C132.987 52.7559 132.581 52.2678 132.342 51.6966C132.102 51.1255 132.04 50.4971 132.162 49.8908C132.284 49.2845 132.585 48.7276 133.028 48.2905C133.471 47.8534 134.035 47.5557 134.649 47.4351C135.263 47.3145 135.9 47.3764 136.478 47.613C137.057 47.8495 137.551 48.2501 137.899 48.7641C138.247 49.2781 138.432 49.8824 138.432 50.5006C138.433 50.9111 138.351 51.3178 138.192 51.6972C138.033 52.0766 137.8 52.4213 137.506 52.7116C137.212 53.0019 136.863 53.2322 136.479 53.3891C136.094 53.546 135.683 53.6265 135.267 53.6261Z" fill="#8BD650"/>
<path d="M25.0384 77.6053L0.647949 137.405L46.3791 129.981L79.9185 137.405L114.267 129.981L160.203 138.632L135.611 77.6053L108.171 70.7811L80.4274 76.0004L52.0721 70.7811L25.0384 77.6053Z" fill="white"/>
<path d="M25.0385 77.6053L25.4859 77.4873L26.8212 77.1501L32.0531 75.8183L52.062 70.7608H52.079L80.4241 75.9633H80.4002L108.144 70.7372H108.192L135.629 77.5412H135.67V77.5783L160.258 138.605L160.32 138.754L160.159 138.723L136.53 134.273L114.223 130.072H114.261L79.9084 137.489H79.8879L46.352 130.072H46.3793L0.64468 137.489L0.531982 137.506L0.576378 137.402C8.12027 118.938 14.2367 103.989 18.4508 93.6544L23.3207 81.7626L24.5877 78.6741C24.8746 77.9796 25.0249 77.6255 25.0249 77.6255C25.0249 77.6255 24.8848 77.9863 24.6014 78.6876L23.3446 81.7895L18.5191 93.6814L0.709566 137.429L0.637849 137.341L46.3793 129.903H46.41L79.946 137.321H79.9118L114.261 129.903H114.278L136.585 134.104L160.214 138.555L160.115 138.673L135.526 77.6458L135.581 77.693L108.144 70.862H108.192L80.4378 76.0577H80.4139L52.0688 70.8249L32.0804 75.8554L26.8383 77.167L25.4961 77.5042L25.0385 77.6053Z" fill="#263238"/>
<path d="M26.4625 79.2102L4.91687 134.394L46.1777 127.772L80.4275 135.598L114.267 127.573L156.341 135.598L134.187 79.2102L108.578 72.9895L80.4275 78.2088L51.6657 72.9895L26.4625 79.2102Z" fill="white"/>
<path d="M7.31091 128.264L40.1058 120.762L38.8969 113.79L41.6221 112.094L37.3806 95.8055L24.2667 84.8308L7.31091 128.264Z" fill="#455A64"/>
<path d="M4.91687 134.394L6.51512 130.301L61.5046 117.688L64.4893 125.803L63.5229 127.442L53.1957 129.377L46.1777 127.772L4.91687 134.394Z" fill="#EBEBEB"/>
<path d="M64.4893 116.902L66.6715 124.93L73.0064 127.647L82.0154 123.696L100.918 118.261L95.02 109.488L64.4893 116.902Z" fill="#EBEBEB"/>
<path d="M42.527 119.876L52.7449 117.688L50.7061 111.133L43.2613 112.907L41.2805 114.289L42.527 119.876Z" fill="#E0E0E0"/>
<path d="M40.4402 98.1522L44.149 110.172L49.9477 108.911L48.9027 104.295L61.658 101.473L40.4402 98.1522Z" fill="#455A64"/>
<path d="M25.2328 82.3627L41.2802 95.0806L62.5834 99.0693L85.3073 93.4925L74.9357 77.2108L51.6654 72.9895L26.4622 79.2102L25.2328 82.3627Z" fill="#EBEBEB"/>
<path d="M78.04 77.7739L111.354 128.264L114.267 127.573L82.022 77.9121L80.4272 78.2088L78.04 77.7739Z" fill="#EBEBEB"/>
<path d="M51.0476 105.566L55.2686 117.688L92.7456 108.233L85.8096 96.5776L51.0476 105.566Z" fill="#E0E0E0"/>
<path d="M71.8962 133.649L72.2616 133.113L74.7239 129.502L80.6286 127.647L84.6925 124.626L102.304 119.876L107.775 129.111L80.4271 135.598" fill="#E0E0E0"/>
<path d="M103.097 74.0044L111.921 83.6979L134.187 79.2102L108.578 72.9895L103.097 74.0044Z" fill="#E0E0E0"/>
<path d="M138.873 91.1358L122.522 95.6234L114.267 84.8308L134.744 80.6331L138.873 91.1358Z" fill="#E0E0E0"/>
<path d="M83.771 77.5851L100.918 101.901L120.705 96.2944L100.918 74.409L83.771 77.5851Z" fill="#EBEBEB"/>
<path d="M131.705 130.898L151.488 123.247L156.341 135.598L131.705 130.898Z" fill="#E0E0E0"/>
<path d="M111.013 100.448L121.763 97.6801L133.118 111.133L122.067 114.754L111.013 100.448Z" fill="#455A64"/>
<path d="M124.185 96.5776L136.148 110.118L145.157 107.131L139.231 92.0529L124.185 96.5776Z" fill="#E0E0E0"/>
<path d="M133.118 127.738L124.185 115.503L145.778 108.709L150.163 119.876L147.349 122.671L133.118 127.738Z" fill="#455A64"/>
<path d="M101.966 103.688L118.379 128.264L128.487 130.284L130.393 129.424L109.595 101.419L101.966 103.688Z" fill="#E0E0E0"/>
<path d="M34.7032 122L30.6153 103.017L16.1969 105.506L7.31091 128.264L34.7032 122Z" fill="#E0E0E0"/>
<path d="M47.9601 73.9032V82.5954L51.0473 82.9797L59.6669 92.8924L67.0776 92.0529L70.6054 97.1002L62.5834 99.0693L41.2802 95.0806L25.2328 82.3627L26.4622 79.2102L47.9601 73.9032Z" fill="#455A64"/>
<path d="M93.0259 75.9464L105.132 93.388L115.562 90.6064L100.918 74.409L93.0259 75.9464Z" fill="#E0E0E0"/>
<path d="M128.566 93.9646L124.185 87.2044L136.028 83.9002L138.873 91.1358L128.566 93.9646Z" fill="#EBEBEB"/>
<path d="M111.013 117.236L116.747 115.277L127.866 130.159L118.379 128.264L111.013 117.236Z" fill="#EBEBEB"/>
<path d="M58.1306 130.503L63.4615 129.863L65.2374 127.297L71.8968 129.364L70.1551 133.251L58.1306 130.503Z" fill="#455A64"/>
<path d="M26.4627 79.2271L28.1224 78.8056L32.9991 77.5918L51.6557 72.9625H51.6727L80.4379 78.165H80.4139L108.564 72.9356H108.595L134.208 79.1495H134.246V79.19C141.045 96.4225 148.534 115.493 156.423 135.567L156.481 135.716L156.324 135.685L135.216 131.66L114.25 127.658H114.288L80.4481 135.682H80.4071L46.1608 127.85H46.1915L4.92728 134.458L4.81799 134.475L4.85556 134.371C11.5252 117.327 16.9244 103.53 20.6537 93.9949C22.5217 89.2341 23.9697 85.5354 24.9532 83.0269L26.0768 80.1779C26.3295 79.5339 26.4627 79.2102 26.4627 79.2102C26.4627 79.2102 26.3363 79.5474 26.087 80.1914L24.9806 83.0505L20.7083 94.0421L4.9785 134.418L4.90679 134.333L46.1642 127.698H46.195L80.4447 135.534H80.4071L114.247 127.506H114.268L135.25 131.488L156.345 135.514L156.246 135.632C148.36 115.553 140.878 96.4967 134.099 79.2406L134.153 79.2878L108.54 73.0603H108.571L80.4174 78.2661H80.3935L51.6386 73.0333L33.0265 77.612L28.1395 78.809L26.4627 79.2271Z" fill="#263238"/>
<g opacity="0.2">
<path d="M79.9185 137.405L80.4274 76.0004L52.0721 70.7811L46.3792 129.981L79.9185 137.405Z" fill="black"/>
</g>
<g opacity="0.2">
<path d="M108.171 70.7811L114.267 129.981L160.203 138.632L135.611 77.6053L108.171 70.7811Z" fill="black"/>
</g>
<path d="M80.6458 17.8933C60.8384 18.3484 44.6817 34.2896 44.2105 53.8452C44.0019 61.8727 46.4674 69.746 51.2284 76.2566L51.5938 76.7455L51.6451 76.8163L78.0777 112.313C78.617 113.037 79.3248 113.623 80.1413 114.02C80.9579 114.417 81.8592 114.615 82.7693 114.596C83.6794 114.577 84.5716 114.342 85.3705 113.912C86.1695 113.481 86.8518 112.867 87.3599 112.121L111.265 77.0557C115.787 70.245 118.888 63.1308 118.888 54.7421C118.888 49.8262 117.892 44.9599 115.959 40.4296C114.025 35.8994 111.194 31.7968 107.63 28.3632C104.067 24.9296 99.8437 22.2345 95.2095 20.4364C90.5753 18.6383 85.6236 17.7737 80.6458 17.8933ZM81.5338 81.5468C75.9822 81.5474 70.5551 79.9227 65.9388 76.8781C61.3225 73.8336 57.7244 69.5058 55.5994 64.4422C53.4745 59.3787 52.9182 53.8067 54.0008 48.4309C55.0834 43.0552 57.7564 38.1171 61.6817 34.2412C65.607 30.3653 70.6084 27.7257 76.0532 26.6562C81.498 25.5867 87.1418 26.1353 92.2709 28.2326C97.3999 30.3299 101.784 33.8818 104.868 38.439C107.953 42.9962 109.599 48.3541 109.599 53.8351C109.599 61.1841 106.642 68.2322 101.379 73.429C96.1158 78.6259 88.9774 81.5459 81.5338 81.5468Z" fill="#8BD650"/>
<g opacity="0.3">
<path d="M80.6458 17.8933C60.8384 18.3484 44.6817 34.2896 44.2105 53.8452C44.0019 61.8727 46.4674 69.746 51.2284 76.2566L51.5938 76.7455L51.6451 76.8163L78.0777 112.313C78.617 113.037 79.3248 113.623 80.1413 114.02C80.9579 114.417 81.8592 114.615 82.7693 114.596C83.6794 114.577 84.5716 114.342 85.3705 113.912C86.1695 113.481 86.8518 112.867 87.3599 112.121L111.265 77.0557C115.787 70.245 118.888 63.1308 118.888 54.7421C118.888 49.8262 117.892 44.9599 115.959 40.4296C114.025 35.8994 111.194 31.7968 107.63 28.3632C104.067 24.9296 99.8437 22.2345 95.2095 20.4364C90.5753 18.6383 85.6236 17.7737 80.6458 17.8933ZM81.5338 81.5468C75.9822 81.5474 70.5551 79.9227 65.9388 76.8781C61.3225 73.8336 57.7244 69.5058 55.5994 64.4422C53.4745 59.3787 52.9182 53.8067 54.0008 48.4309C55.0834 43.0552 57.7564 38.1171 61.6817 34.2412C65.607 30.3653 70.6084 27.7257 76.0532 26.6562C81.498 25.5867 87.1418 26.1353 92.2709 28.2326C97.3999 30.3299 101.784 33.8818 104.868 38.439C107.953 42.9962 109.599 48.3541 109.599 53.8351C109.599 61.1841 106.642 68.2322 101.379 73.429C96.1158 78.6259 88.9774 81.5459 81.5338 81.5468Z" fill="black"/>
</g>
<path d="M78.4332 17.8933C58.6258 18.3484 42.4691 34.2896 41.9978 53.8452C41.7893 61.8727 44.2548 69.746 49.0158 76.2566L49.3812 76.7455L49.4324 76.8163L75.8651 112.313C76.4043 113.037 77.1121 113.623 77.9287 114.02C78.7452 114.417 79.6465 114.615 80.5567 114.596C81.4668 114.577 82.3589 114.342 83.1579 113.912C83.9568 113.481 84.6391 112.867 85.1472 112.121L109.053 77.0557C113.574 70.245 116.675 63.1308 116.675 54.7421C116.675 49.8262 115.679 44.9599 113.746 40.4296C111.813 35.8994 108.981 31.7968 105.418 28.3632C101.854 24.9296 97.6311 22.2345 92.9969 20.4364C88.3626 18.6383 83.4109 17.7737 78.4332 17.8933ZM79.3211 81.5468C73.7695 81.5474 68.3425 79.9227 63.7262 76.8781C59.1099 73.8336 55.5118 69.5058 53.3868 64.4422C51.2618 59.3787 50.7055 53.8067 51.7881 48.4309C52.8708 43.0552 55.5438 38.1171 59.4691 34.2412C63.3944 30.3653 68.3957 27.7257 73.8405 26.6562C79.2854 25.5867 84.9292 26.1353 90.0582 28.2326C95.1873 30.3299 99.5712 33.8818 102.656 38.439C105.74 42.9962 107.386 48.3541 107.386 53.8351C107.386 61.1841 104.429 68.2322 99.1663 73.429C93.9032 78.6259 86.7647 81.5459 79.3211 81.5468Z" fill="#8BD650"/>
<g opacity="0.3">
<path d="M95.4672 74.736C95.0164 75.2384 65.336 82.9763 64.8887 83.4787C70.5782 85.1915 77.5244 86.6818 83.4735 86.3413C86.8237 86.1524 90.3036 85.5624 92.9674 83.5259C95.6311 81.4894 97.0791 77.6424 95.4672 74.736Z" fill="black"/>
</g>
<path d="M67.1224 18.8138C66.266 19.7127 65.6423 20.8027 65.3046 21.9909C64.9668 23.1792 64.925 24.4304 65.1826 25.638C65.4422 26.8046 65.9613 28.106 65.3124 29.1142C64.6635 30.1223 63.1541 30.2942 62.5496 31.3158C61.8324 32.5128 62.7887 34.0132 62.6691 35.409C62.5919 36.0599 62.2824 36.6623 61.7962 37.1084C61.3099 37.5544 60.6787 37.815 60.0156 37.8434C61.727 38.8661 63.691 39.4028 65.6915 39.3943C66.1013 38.693 66.5099 37.9917 66.9175 37.2904C66.4462 38.0356 66.7467 39.0707 67.3922 39.6742C68.0376 40.2777 68.9392 40.5306 69.8169 40.6857C71.9224 41.0196 74.0776 40.8681 76.1139 40.2428C78.1502 39.6175 80.0123 38.5355 81.5545 37.0814" fill="#263238"/>
<path d="M91.0686 26.1302C90.6418 25.2671 90.0202 24.4983 89.7026 23.5947C88.9854 21.656 89.6514 19.2655 88.4117 17.6033C87.5306 16.4165 85.9529 15.995 84.481 15.7624C83.0091 15.5297 81.4484 15.3746 80.2531 14.5014C79.3754 13.8574 78.7915 12.8864 77.9172 12.2424C76.6707 11.3219 75.0007 11.1837 73.4503 11.3017C71.8999 11.4197 70.2333 11.794 68.9185 12.6874C67.6037 13.5809 66.5997 15.0274 66.5655 16.6053C66.5485 17.374 66.7534 18.1495 66.6168 18.9048C66.4665 19.7376 65.9337 20.4456 65.6366 21.2413C65.357 22.0955 65.373 23.0172 65.6821 23.8613C65.9912 24.7055 66.5759 25.4242 67.3442 25.9043L80.1507 38.2345C82.5412 38.7672 87.9234 36.9768 89.4465 35.0719C90.9696 33.1669 92.141 28.3151 91.0686 26.1302Z" fill="#263238"/>
<path d="M67.3582 24.1072C67.3582 20.9075 69.2535 16.8615 72.4808 16.9998L82.6918 18.8845C83.1666 18.9052 83.6163 19.1009 83.952 19.433C84.2878 19.7651 84.4852 20.2094 84.5052 20.6782L84.9492 44.6709H85.0175C85.0175 44.6709 83.1733 51.5626 76.3978 49.9274C75.0523 49.5902 74.3488 48.2213 74.0073 46.7749H73.9424C73.9253 46.5995 73.9151 46.4377 73.9014 46.2725C73.6992 45.1909 73.6134 44.0913 73.6453 42.9919C73.4985 41.0599 73.4506 40.2676 73.4506 40.2945C73.4506 40.3215 69.2808 39.8764 68.089 34.6133C67.4982 32.0239 67.3582 27.6643 67.3582 24.1072Z" fill="#FFBE9D"/>
<path d="M76.7117 27.3878C76.7152 27.4764 76.7364 27.5634 76.774 27.6439C76.8116 27.7244 76.8649 27.7968 76.9309 27.8569C76.9969 27.9171 77.0742 27.9638 77.1585 27.9943C77.2427 28.0249 77.3323 28.0388 77.422 28.0352C77.511 28.0379 77.5997 28.0229 77.6826 27.991C77.7656 27.9592 77.8413 27.9111 77.905 27.8498C77.9688 27.7884 78.0193 27.715 78.0537 27.6339C78.0881 27.5527 78.1055 27.4656 78.105 27.3777C78.1015 27.2892 78.0803 27.2021 78.0427 27.1216C78.0051 27.0411 77.9518 26.9688 77.8858 26.9086C77.8198 26.8485 77.7425 26.8018 77.6582 26.7712C77.574 26.7406 77.4844 26.7268 77.3947 26.7304C77.3057 26.7277 77.217 26.7427 77.1341 26.7745C77.0511 26.8064 76.9754 26.8545 76.9117 26.9158C76.8479 26.9772 76.7974 27.0506 76.763 27.1317C76.7286 27.2128 76.7112 27.2999 76.7117 27.3878Z" fill="#263238"/>
<path d="M69.6598 27.9206C69.6633 28.0092 69.6844 28.0962 69.7221 28.1767C69.7597 28.2572 69.813 28.3295 69.879 28.3897C69.9449 28.4498 70.0223 28.4965 70.1066 28.5271C70.1908 28.5577 70.2804 28.5716 70.3701 28.5679C70.4606 28.5707 70.5506 28.5552 70.6348 28.5223C70.719 28.4894 70.7954 28.4399 70.8594 28.3767C70.9234 28.3135 70.9736 28.238 71.0069 28.155C71.0402 28.0719 71.0559 27.9829 71.0531 27.8936C71.0451 27.7153 70.9659 27.5474 70.8327 27.4267C70.6996 27.306 70.5234 27.2423 70.3428 27.2496C70.2525 27.2463 70.1625 27.2614 70.0783 27.2939C69.9942 27.3265 69.9177 27.3757 69.8536 27.4386C69.7896 27.5015 69.7393 27.5768 69.706 27.6597C69.6726 27.7426 69.6569 27.8314 69.6598 27.9206Z" fill="#263238"/>
<path d="M68.1773 26.4134C68.2695 26.5247 68.8603 26.0426 69.6629 26.0459C70.4654 26.0493 71.0597 26.518 71.1519 26.4033C71.1963 26.3528 71.1041 26.1505 70.8479 25.9313C70.5131 25.6562 70.0917 25.5048 69.6561 25.5031C69.2204 25.5109 68.8017 25.671 68.4744 25.9549C68.2354 26.1572 68.1329 26.3629 68.1773 26.4134Z" fill="#263238"/>
<path d="M75.6838 26.2314C75.7931 26.3325 76.3668 25.7964 77.2172 25.7155C78.0675 25.6346 78.7505 26.0257 78.8325 25.9077C78.8735 25.8537 78.7574 25.6616 78.4603 25.4761C78.0677 25.2419 77.6083 25.1413 77.1523 25.1895C76.6986 25.2348 76.2732 25.4282 75.9433 25.7391C75.7009 25.9785 75.6292 26.1875 75.6838 26.2314Z" fill="#263238"/>
<path d="M73.4164 31.5957C73.016 31.5007 72.6055 31.4543 72.1938 31.4574C72.0059 31.4574 71.8215 31.4237 71.7839 31.2956C71.7539 31.1034 71.7849 30.9066 71.8727 30.7325C72.023 30.2706 72.1801 29.7817 72.344 29.2726C72.9963 27.1923 73.4539 25.4896 73.3685 25.4626C73.2832 25.4357 72.6855 27.1046 72.0367 29.1715C71.8796 29.6839 71.7327 30.1829 71.5893 30.6415C71.4837 30.8749 71.4656 31.1378 71.5381 31.3833C71.5713 31.4487 71.6194 31.5055 71.6786 31.5494C71.7379 31.5933 71.8067 31.623 71.8796 31.6361C71.9918 31.6592 72.1067 31.6672 72.2211 31.6597C72.6206 31.6884 73.0223 31.6669 73.4164 31.5957Z" fill="#263238"/>
<path d="M73.4536 40.308C75.9862 40.1872 78.4355 39.3761 80.5296 37.9647C80.5296 37.9647 79.0133 41.7241 73.5902 41.5589L73.4536 40.308Z" fill="#EB996E"/>
<path d="M73.8431 33.3456C73.9732 33.1611 74.1486 33.0123 74.3529 32.9132C74.5572 32.8142 74.7837 32.768 75.0111 32.7791C75.1759 32.7847 75.3381 32.8224 75.4881 32.8901C75.6382 32.9578 75.7732 33.0541 75.8853 33.1736C75.9924 33.2903 76.0607 33.4366 76.0808 33.5927C76.101 33.7489 76.0721 33.9074 75.998 34.0469C75.8865 34.1857 75.7358 34.2886 75.5649 34.3426C75.3941 34.3967 75.2108 34.3993 75.0384 34.3503C74.6801 34.2487 74.3458 34.078 74.0548 33.8479C73.9667 33.7961 73.8901 33.7273 73.8295 33.6456C73.8012 33.6055 73.7861 33.5579 73.7861 33.5091C73.7861 33.4603 73.8012 33.4126 73.8295 33.3725" fill="#8BD650"/>
<path d="M75.636 31.9699C75.5131 31.9699 75.5609 32.7657 74.9086 33.3725C74.2563 33.9794 73.3889 33.9457 73.3889 34.0469C73.3889 34.0975 73.5904 34.1885 73.9558 34.175C74.4285 34.1514 74.8779 33.9653 75.2262 33.649C75.5576 33.3431 75.7569 32.9229 75.7829 32.4757C75.7931 32.152 75.6907 31.9598 75.636 31.9699Z" fill="#263238"/>
<path d="M75.4075 23.7498C75.4963 23.9454 76.2305 23.8038 77.115 23.8544C77.9995 23.9049 78.7133 24.0937 78.8226 23.9083C78.8669 23.8206 78.7338 23.6386 78.4366 23.4632C78.0419 23.2512 77.6036 23.1302 77.1547 23.1092C76.7058 23.0881 76.2579 23.1677 75.8446 23.3419C75.5168 23.4902 75.3665 23.6554 75.4075 23.7498Z" fill="#263238"/>
<path d="M68.5979 24.1645C68.7549 24.323 69.3287 24.114 70.0322 24.06C70.7357 24.0061 71.3402 24.0937 71.4665 23.9083C71.5212 23.8206 71.4153 23.6588 71.1455 23.5172C70.7765 23.3447 70.3665 23.2759 69.9605 23.3183C69.554 23.3471 69.1638 23.4872 68.8335 23.7229C68.5944 23.9117 68.5261 24.087 68.5979 24.1645Z" fill="#263238"/>
<path d="M84.9696 19.3431C84.372 18.6688 83.4328 18.4024 82.5449 18.1967C78.711 17.3154 74.7846 16.8865 70.8483 16.9189C70.4795 17.7685 71.0737 18.7733 71.8728 19.2419C72.672 19.7106 73.6452 19.8084 74.5571 20.0073C75.4689 20.2062 76.4319 20.5771 76.9101 21.356C77.4189 22.2023 77.2516 23.3082 77.7126 24.178C78.5117 25.6751 80.8101 25.8639 81.5989 27.3744C82.1966 28.5106 81.6775 29.8761 81.6809 31.1574C81.6816 31.8074 81.8228 32.4499 82.0949 33.0419C82.3671 33.6338 82.764 34.1617 83.2591 34.5902C83.7542 35.0187 84.3362 35.3381 84.9663 35.527C85.5963 35.7158 86.2599 35.7699 86.9128 35.6855C86.5326 31.127 86.1546 26.5697 85.779 22.0134C85.7039 21.0829 85.598 20.0613 84.9696 19.3431Z" fill="#263238"/>
<path d="M95.8123 29.4884C94.9961 28.9489 94.0126 28.5207 93.5925 27.6441C92.9846 26.3696 93.8452 24.6501 92.9744 23.534C92.1821 22.5226 90.3107 22.8294 89.5593 21.7808C88.9719 20.9615 89.392 20.095 89.1051 19.3532C88.8183 18.6114 87.6059 18.0753 86.8205 18.2776L81.8379 28.0925C81.6842 31.1742 81.3256 32.8533 82.2272 34.5189C82.7224 35.4326 83.3234 36.3059 83.5932 37.3039C83.863 38.3019 83.7776 39.4887 83.0229 40.2069C86.8 39.9776 90.0306 37.5601 93.0051 35.2438L96.1504 32.7926C96.4992 32.5646 96.7845 32.2539 96.9803 31.889C97.3798 31.0124 96.6251 30.0279 95.8123 29.4884Z" fill="#263238"/>
<path d="M92.9813 34.3267C92.8581 34.3847 92.7286 34.4288 92.5954 34.4582C92.2104 34.5525 91.8117 34.5799 91.4172 34.5391C90.7889 34.4795 90.1873 34.2586 89.6721 33.8985C88.9878 33.4058 88.5036 32.6886 88.306 31.8755C88.1833 31.4078 88.1566 30.9206 88.2275 30.4426C88.3286 29.9387 88.4963 29.4502 88.7261 28.9894C88.9724 28.509 89.1461 27.9955 89.2418 27.4654C89.2916 27.1942 89.2794 26.9154 89.2062 26.6494C89.1329 26.3834 89.0004 26.1369 88.8183 25.9279C88.4153 25.5267 87.7665 25.5031 87.1483 25.3514C86.8134 25.2846 86.5065 25.1202 86.2673 24.8794C86.0426 24.615 85.9055 24.2891 85.8745 23.9454C85.7857 23.2711 85.9906 22.5967 86.0248 21.9662C86.0559 21.6462 86.0127 21.3233 85.8984 21.0222C85.7708 20.7291 85.5421 20.4902 85.253 20.3478C84.6588 20.041 83.9621 20.0747 83.2893 20.1118C82.6068 20.1813 81.9175 20.0804 81.2847 19.8185C80.6739 19.5529 80.1483 19.1273 79.765 18.5878C79.4301 18.062 79.1812 17.4874 79.0273 16.8852C78.8823 16.33 78.6798 15.791 78.4228 15.2769C78.1571 14.811 77.7939 14.4064 77.3573 14.0901C76.6326 13.566 75.7576 13.2835 74.8592 13.2835C73.9609 13.2835 73.0859 13.566 72.3611 14.0901C71.8582 14.4382 71.4222 14.8721 71.0736 15.3713C70.7827 15.8029 70.5443 16.2669 70.3633 16.7537C70.3656 16.7192 70.3725 16.6852 70.3838 16.6525C70.4043 16.5885 70.4282 16.4873 70.476 16.3659C70.6093 15.9995 70.7858 15.6498 71.0019 15.3241C71.3449 14.8013 71.7811 14.3444 72.2894 13.9754C72.9613 13.4906 73.7577 13.2021 74.5877 13.1426C75.6088 13.0829 76.6201 13.367 77.4564 13.9484C77.9178 14.2775 78.3022 14.7006 78.5834 15.1892C78.8491 15.7135 79.0586 16.2639 79.2083 16.8312C79.3609 17.4115 79.6028 17.9653 79.9255 18.4732C80.2891 18.9786 80.7848 19.3772 81.3598 19.6263C81.962 19.8683 82.6159 19.9576 83.262 19.8859C83.945 19.8522 84.6724 19.805 85.3349 20.1455C85.6711 20.3094 85.9366 20.587 86.0828 20.9278C86.2108 21.2585 86.2598 21.6138 86.2263 21.9662C86.1853 22.6406 85.9872 23.2879 86.0692 23.9117C86.0952 24.2119 86.2145 24.4968 86.4107 24.7276C86.6232 24.9367 86.8924 25.0807 87.1859 25.1423C87.483 25.2199 87.7938 25.257 88.1012 25.3379C88.4181 25.4066 88.7106 25.5579 88.9481 25.7762C89.1501 26.0074 89.2973 26.2803 89.3789 26.5749C89.4604 26.8695 89.4742 27.1784 89.4194 27.4789C89.3189 28.0271 89.1371 28.5577 88.8798 29.0535C88.6498 29.5024 88.4821 29.9798 88.3812 30.4729C88.3101 30.9288 88.331 31.394 88.4427 31.8418C88.631 32.6213 89.0902 33.3109 89.7404 33.7906C90.2362 34.1462 90.8157 34.3713 91.424 34.4447C91.9459 34.5056 92.4749 34.4655 92.9813 34.3267Z" fill="#455A64"/>
<path d="M97.0658 27.2766C97.141 27.3584 97.198 27.4549 97.2331 27.5598C97.3368 27.8658 97.3259 28.1984 97.2024 28.4971C97.1164 28.7152 96.9767 28.9087 96.796 29.0602C96.575 29.2375 96.3072 29.3486 96.0242 29.3805C95.6814 29.4216 95.3337 29.3688 95.0193 29.2279C94.7049 29.0869 94.4358 28.8633 94.2415 28.5814C94.0147 28.2565 93.8684 27.8834 93.8146 27.4924C93.769 27.0722 93.8003 26.6474 93.9069 26.2381C94.0879 25.3986 94.5182 24.5523 94.3952 23.6082C94.3818 23.3766 94.3207 23.15 94.2156 22.9425C94.1105 22.7349 93.9636 22.5507 93.7839 22.4012C93.3586 22.1452 92.8495 22.0618 92.3632 22.1685C91.8236 22.2842 91.2675 22.3047 90.7206 22.2292C90.4299 22.1551 90.1698 21.9937 89.9761 21.7673C89.7908 21.5386 89.6579 21.2728 89.5868 20.9884C89.4846 20.4416 89.4525 19.8843 89.4912 19.3296C89.499 18.8105 89.3955 18.2957 89.1872 17.8191C88.7907 16.9113 88.0576 16.1876 87.1382 15.7961C86.2605 15.4252 85.3145 15.5028 84.4642 15.5702C83.66 15.6827 82.8428 15.669 82.0429 15.5297C81.3857 15.385 80.7652 15.1096 80.2193 14.7205C79.8081 14.4308 79.4432 14.0819 79.1367 13.6854C78.8686 13.3539 78.6617 12.9784 78.5254 12.5762C78.7217 12.9468 78.9503 13.2999 79.2084 13.6315C79.9348 14.522 80.9485 15.1397 82.0805 15.3814C82.8658 15.5017 83.6652 15.5017 84.4505 15.3814C85.3009 15.3072 86.281 15.2162 87.2202 15.6005C88.1929 16.0051 88.9723 16.7614 89.399 17.7146C89.6198 18.2176 89.7304 18.7611 89.7234 19.3094C89.6851 19.846 89.716 20.3853 89.8156 20.9143C89.8608 21.1662 89.9757 21.4008 90.1474 21.5924C90.3192 21.784 90.5411 21.925 90.7889 21.9999C91.3099 22.0685 91.839 22.0479 92.353 21.9392C92.8931 21.8241 93.4574 21.9235 93.9239 22.2157C94.1246 22.3829 94.2886 22.5888 94.4061 22.8206C94.5235 23.0525 94.5919 23.3056 94.6069 23.5644C94.6544 24.0436 94.6045 24.5273 94.4601 24.9872C94.3406 25.4323 94.1937 25.847 94.0947 26.2583C93.9867 26.6466 93.9531 27.0514 93.9956 27.4519C94.0421 27.8143 94.1743 28.1608 94.3816 28.4634C94.5582 28.7265 94.8042 28.9372 95.093 29.0726C95.3818 29.2081 95.7026 29.2632 96.0208 29.2321C96.2821 29.2063 96.5307 29.1082 96.7379 28.9489C96.9108 28.813 97.0469 28.6369 97.1341 28.4364C97.2593 28.155 97.2834 27.8397 97.2024 27.5429C97.1615 27.4519 97.1159 27.363 97.0658 27.2766Z" fill="#263238"/>
<path d="M57.9905 34.9336C57.9269 35.2622 57.9787 35.6023 58.1373 35.8979C58.2255 36.0682 58.3509 36.2171 58.5045 36.3337C58.658 36.4503 58.8359 36.5318 59.0253 36.5722C59.2765 36.6095 59.5332 36.5769 59.7667 36.478C60.0002 36.3791 60.2011 36.2179 60.3469 36.0126C60.5098 35.7712 60.5845 35.4822 60.5586 35.1932C60.5241 34.8745 60.4303 34.5647 60.282 34.2795C59.9951 33.6827 59.4931 33.059 59.4385 32.2329C59.4091 31.8149 59.4683 31.3954 59.6124 31.0012C59.7564 30.607 59.9822 30.2468 60.2752 29.9436C60.5823 29.623 60.9485 29.3632 61.3543 29.1782C61.7704 28.9968 62.2091 28.871 62.6589 28.804C63.0924 28.7385 63.5188 28.6336 63.9327 28.4904C64.3194 28.3533 64.6448 28.0858 64.8514 27.7351C65.0272 27.3807 65.0993 26.9849 65.0597 26.5921C65.0256 26.2068 64.9383 25.8279 64.8001 25.466C64.544 24.7512 64.2162 24.0634 64.1581 23.352C64.1034 22.6972 64.2472 22.0411 64.5713 21.4672C64.8508 21.0091 65.2158 20.6075 65.6471 20.2838C65.96 20.0376 66.2544 19.7694 66.5282 19.4813C66.7536 19.2306 66.9245 18.9368 67.0302 18.6182C67.0302 18.6182 67.0302 18.6418 67.0302 18.6856C67.0214 18.7512 67.0054 18.8157 66.9824 18.8778C66.899 19.1185 66.7704 19.3416 66.6033 19.5353C66.337 19.8362 66.0469 20.1158 65.7359 20.3714C65.3245 20.6947 64.9772 21.0902 64.7113 21.538C64.4137 22.0876 64.2855 22.7111 64.3425 23.3318C64.404 24.0061 64.725 24.6804 64.9948 25.3952C65.1424 25.7739 65.2355 26.1711 65.2714 26.5753C65.317 27.0074 65.2377 27.4435 65.0426 27.8329C64.8131 28.228 64.4506 28.531 64.0181 28.6893C63.5912 28.8412 63.1511 28.9541 62.7033 29.0265C62.2714 29.0908 61.85 29.2109 61.45 29.3839C61.0652 29.555 60.7173 29.7977 60.4254 30.0987C60.151 30.3802 59.9388 30.7151 59.8024 31.0819C59.666 31.4487 59.6084 31.8396 59.6331 32.2296C59.6741 32.9848 60.142 33.5782 60.4391 34.2121C60.594 34.5189 60.689 34.8517 60.7191 35.1932C60.747 35.5188 60.6575 35.8436 60.4664 36.1103C60.302 36.3352 60.0767 36.5099 59.8164 36.6142C59.556 36.7186 59.2712 36.7484 58.9945 36.7004C58.6641 36.6171 58.3742 36.4212 58.1761 36.1472C57.978 35.8732 57.8844 35.5389 57.9119 35.2034C57.9207 35.1094 57.9474 35.0179 57.9905 34.9336Z" fill="#263238"/>
<path d="M59.2365 55.494C59.2365 55.494 59.8103 50.9591 62.0232 48.6934C64.2362 46.4276 73.4979 43.5887 73.4979 43.5887C73.4979 43.5887 73.8804 46.8221 76.1002 47.6009C78.4531 48.4304 81.1101 48.1202 82.8313 46.1444C83.8722 44.8781 84.6038 43.3922 84.9691 41.8017C84.9691 41.8017 96.0305 42.8132 97.8337 45.8005C99.6368 48.7878 101.969 60.3964 101.969 60.3964L91.6285 62.5644L93.0355 82.5448H65.5715L66.1077 63.7916L58.6287 64.847L59.2365 55.494Z" fill="#455A64"/>
<path d="M89.5905 63.2049C89.5579 63.0578 89.5453 62.907 89.5529 62.7565C89.5529 62.4665 89.5529 62.0451 89.5529 61.5292C89.5529 60.4908 89.57 59.0612 89.6042 57.4832C89.6383 55.9053 89.6793 54.4723 89.7237 53.4372C89.7442 52.918 89.7647 52.4999 89.7852 52.21C89.7827 52.0585 89.8022 51.9075 89.8432 51.7615C89.8732 51.9091 89.8847 52.0597 89.8774 52.21C89.8774 52.4999 89.8774 52.9214 89.8774 53.4372C89.8774 54.4757 89.8603 55.9053 89.8261 57.4832C89.792 59.0612 89.751 60.4941 89.7066 61.5292C89.6861 62.0451 89.6622 62.4632 89.6451 62.7531C89.6491 62.9055 89.6307 63.0577 89.5905 63.2049Z" fill="#263238"/>
<path d="M63.5604 54.9781C63.6253 54.9612 64.2708 57.0011 65.0016 59.5062C65.7324 62.0114 66.2788 64.0782 66.2139 64.0951C66.1491 64.1119 65.507 62.0721 64.7728 59.5703C64.0385 57.0685 63.499 54.9983 63.5604 54.9781Z" fill="#263238"/>
<path d="M96.6932 45.0654C96.6932 45.1059 96.2015 45.1969 95.4467 45.4802C93.4672 46.2281 91.8196 47.6435 90.7954 49.4756C90.4061 50.1735 90.2456 50.6489 90.2046 50.6354C90.2129 50.5197 90.2394 50.4059 90.2831 50.2982C90.379 49.9912 90.5 49.6924 90.6451 49.4048C91.1258 48.4507 91.7926 47.5998 92.6072 46.9009C93.4218 46.2019 94.3682 45.6687 95.3921 45.3318C95.7003 45.2284 96.0167 45.1506 96.3381 45.0992C96.4533 45.0664 96.5737 45.055 96.6932 45.0654Z" fill="#263238"/>
<path d="M61.8596 49.6071C61.9211 49.6071 62.1397 50.2241 62.3446 51.0164C62.5495 51.8087 62.6622 52.4662 62.5973 52.4831C62.5324 52.4999 62.3173 51.8661 62.1124 51.0737C61.9075 50.2814 61.7948 49.6239 61.8596 49.6071Z" fill="#263238"/>
<path d="M100.146 60.7639C100.146 60.7639 97.0483 76.2937 96.6931 77.6221C96.3379 78.9506 95.7676 82.5279 92.0145 83.2697C86.9499 84.2812 67.064 83.5697 67.064 83.5697L70.8205 78.8832L88.2203 74.0651L90.6109 62.7666L100.146 60.7639Z" fill="#FFBE9D"/>
<path d="M70.4895 76.26C70.5586 76.3701 70.6082 76.4909 70.6364 76.6174C70.7384 76.9559 70.8047 77.3039 70.8345 77.6559C70.9392 78.8243 70.6921 79.9972 70.1241 81.0275C69.822 81.6016 69.4391 82.1305 68.9869 82.5987C68.6113 82.9789 68.1586 83.2764 67.6584 83.472C67.3227 83.5971 66.971 83.6754 66.6134 83.7046C66.4834 83.7255 66.3508 83.7255 66.2207 83.7046C66.6863 83.6197 67.1434 83.4945 67.5867 83.3304C68.0529 83.1238 68.4731 82.8281 68.823 82.4605C69.2489 82.0012 69.6138 81.4902 69.909 80.9398C70.456 79.9423 70.7158 78.8159 70.6603 77.6828C70.6261 76.7927 70.4451 76.2735 70.4895 76.26Z" fill="#EB996E"/>
<path d="M53.8374 57.8811C53.8374 57.8811 56.6412 67.197 57.8023 71.2227C59.0386 75.498 61.7399 85.2084 67.4977 83.4855C71.8792 82.1705 70.5917 76.5668 70.5917 76.5668L66.1077 63.7748L62.621 64.3513L59.2366 55.7232L53.8374 57.8811Z" fill="#FFBE9D"/>
<path d="M69.0588 76.9714C69.2154 76.2775 69.2154 75.558 69.0588 74.8641C68.8736 74.1174 68.5568 73.4087 68.123 72.7703C67.5762 71.991 66.9688 71.2549 66.3062 70.5686C65.6407 69.87 65.031 69.1215 64.4826 68.3299C64.0442 67.6767 63.6616 66.9888 63.3385 66.2731C63.12 65.7921 62.9329 65.2977 62.7785 64.793C62.7076 64.611 62.6616 64.4205 62.6418 64.2265C62.73 64.3992 62.8042 64.5785 62.8638 64.7626C63.0004 65.0998 63.2053 65.6056 63.4922 66.2023C63.831 66.8999 64.2238 67.5706 64.667 68.2085C65.218 68.9846 65.8252 69.7205 66.4838 70.4102C67.1548 71.1053 67.7649 71.8554 68.3074 72.6523C68.7492 73.32 69.0607 74.0633 69.2261 74.8439C69.3328 75.3691 69.3328 75.9101 69.2261 76.4353C69.1988 76.5768 69.1588 76.7156 69.1066 76.85C69.0968 76.8926 69.0806 76.9335 69.0588 76.9714Z" fill="#EB996E"/>
<path d="M59.2369 55.7232C59.2369 55.7232 59.2574 52.0144 58.9261 50.9557L56.2624 45.0823C56.2624 45.0823 55.5794 44.6676 55.2379 45.8375C54.8964 47.0075 55.9482 48.2146 55.9482 48.2146L56.0302 49.752L54.9647 48.8821L52.8917 45.0452C52.8917 45.0452 51.4608 42.2501 51.092 42.685C50.7231 43.12 50.8427 44.0337 51.4574 45.2306L52.8576 47.9684C52.8576 47.9684 53.0693 48.4539 52.335 47.7493C51.6008 47.0446 50.006 43.6325 49.6747 43.2043C49.3434 42.7761 48.8927 41.5184 48.1789 41.8118C47.4652 42.1051 48.3804 43.5954 48.3804 43.5954L50.6651 48.6529C50.6651 48.6529 49.34 46.7378 49.101 46.4141C48.8619 46.0904 48.3087 44.9946 47.875 44.4349C47.4413 43.8752 46.9666 43.6594 46.6524 43.7943C46.499 43.8488 46.3726 43.9591 46.2989 44.1027C46.2253 44.2462 46.21 44.4121 46.2562 44.5664L48.698 48.7473C48.698 48.7473 49.9172 50.6253 49.9172 50.7703C49.9172 50.9153 48.8517 50.1499 48.8517 50.1499L47.8272 48.8619C47.8272 48.8619 46.7207 46.9333 46.1401 47.0378C45.5596 47.1424 45.662 47.5706 45.662 47.5706L47.711 51.0838L50.6958 54.8736L53.8855 58.0025L55.7296 57.4158L59.2369 55.7232Z" fill="#FFBE9D"/>
<path d="M53.3664 55.0961C53.4593 54.7161 53.5209 54.3294 53.5508 53.9396C53.6704 53.2451 53.9128 52.2032 54.7768 51.5323C55.1259 51.2446 55.5621 51.0797 56.0165 51.0636H56.1702V50.9018C56.1224 50.1802 56.1497 49.4924 56.1224 49.0373C56.1445 48.7867 56.1095 48.5344 56.0199 48.2989C55.9725 48.5411 55.9484 48.7872 55.9482 49.0339C55.8958 49.6697 55.8765 50.3078 55.8902 50.9456L56.0302 50.7838C55.5069 50.7825 55 50.964 54.5993 51.2963C54.1617 51.6449 53.8277 52.1039 53.6328 52.6247C53.4796 53.0395 53.3831 53.4727 53.3459 53.9127C53.2867 54.3056 53.2937 54.7054 53.3664 55.0961Z" fill="#EB996E"/>
</svg>
